<svg width="202" height="42" viewBox="0 0 202 42" fill="none" xmlns="http://www.w3.org/2000/svg">
<g clip-path="url(#clip0_2132_360)">
<path d="M8.3628 0H181.854C186.473 0 190.217 3.7616 190.217 8.40271V33.6108C190.217 38.2519 186.473 42.0135 181.854 42.0135H8.3628C3.74373 42 0 38.2384 0 33.6108V8.40271C0 3.7616 3.74373 0 8.3628 0Z" fill="#26AFF0"/>
<path d="M8.36279 12.3417C8.36279 10.1632 10.4367 8.39062 13.0088 8.39062H16.7256V29.6612C16.7256 31.8397 14.6517 33.6123 12.0796 33.6123H8.36279V12.3417ZM143.703 21.015C144.363 21.3262 144.888 21.6915 145.292 22.111C145.979 22.8281 146.315 23.9918 146.315 25.6155V27.1986C146.302 28.7141 145.979 29.9319 145.373 30.879C144.74 31.8397 143.784 32.5433 142.491 32.9763C141.198 33.4093 139.555 33.6258 137.549 33.6258H114.965L114.978 12.3552C114.978 10.1767 117.052 8.40416 119.611 8.40416H137.549C139.555 8.40416 141.198 8.62065 142.491 9.05364C143.784 9.48663 144.74 10.1902 145.373 11.1509C145.992 12.0846 146.302 13.3159 146.315 14.8313V16.428C146.315 18.0517 145.979 19.2154 145.292 19.9325C144.888 20.3384 144.363 20.6902 143.703 21.015ZM137.939 27.1986V25.3313C137.939 24.1 136.767 23.1123 135.327 23.1123H123.314V29.4177H135.327C136.767 29.4177 137.939 28.4164 137.939 27.1986ZM123.314 18.9042H135.327C136.767 18.9042 137.939 17.4699 137.939 16.2386V14.8178C137.939 13.5865 136.767 12.5987 135.327 12.5987H123.314V18.9042ZM106.131 8.40416H90.9269C88.8261 8.40416 86.9812 9.60841 86.4425 11.3268L79.4264 33.6258H84.1667C86.2675 33.6258 88.1124 32.4216 88.6511 30.7031L90.3748 25.2231H93.6203C96.1789 25.2231 98.2663 23.4505 98.2663 21.2721V21.015H91.708L93.728 14.5878C94.0916 13.4241 95.344 12.6123 96.758 12.6123H102.441V29.6748C102.441 31.8533 104.515 33.6258 107.087 33.6258H110.804V12.3552C110.79 10.1767 108.703 8.40416 106.131 8.40416ZM58.5261 8.40416H54.8093C52.2507 8.40416 50.1633 10.1767 50.1633 12.3552V33.6258H70.6057C73.1644 33.6258 75.2517 31.8533 75.2517 29.6748V27.3204H58.5261V8.40416ZM156.765 8.40416C153.305 8.40416 150.49 11.2321 150.49 14.7096V17.2534C150.49 18.7147 150.679 19.2424 151.029 20.1084C151.379 20.9879 151.917 21.6374 152.618 22.0704C153.318 22.5034 154.166 22.7875 155.176 22.9228C156.173 23.0582 157.493 23.1258 159.122 23.1258C159.122 23.1258 166.839 23.0987 171.013 23.0987C172.373 23.0987 173.491 24.0324 173.491 25.196V27.2933C173.491 28.457 172.387 29.3906 171.013 29.3906L161.91 29.4177C161.142 29.4177 160.469 29.2418 159.917 28.9035C159.795 28.8359 159.674 28.7411 159.567 28.6464L159.526 28.6194C158.583 27.794 157.277 27.3339 155.917 27.3339H150.49C150.49 30.8114 153.305 33.6258 156.765 33.6258H175.578C179.039 33.6258 181.854 30.7843 181.854 27.3069V25.2096C181.854 23.7076 181.679 22.8011 181.329 21.9216C180.965 21.042 180.44 20.3926 179.74 19.9596C179.039 19.5266 178.191 19.2424 177.181 19.1071C176.184 18.9718 174.865 18.9042 173.235 18.9042L160.846 18.9312C159.769 18.9312 158.88 18.187 158.88 17.2669V14.7231C158.88 13.5594 159.984 12.6258 161.358 12.6258L170.448 12.5987C171.215 12.5987 171.889 12.7746 172.441 13.1129C172.562 13.1941 172.683 13.2753 172.791 13.37L172.831 13.3971C173.774 14.2225 175.08 14.6825 176.44 14.6825H181.867C181.867 11.2051 179.053 8.41769 175.592 8.41769H156.765V8.40416ZM20.9003 14.7096H29.2631V33.6258H32.9799C35.5385 33.6258 37.6259 31.8533 37.6259 29.6748V14.7096H41.3427C43.9013 14.7096 45.9887 12.937 45.9887 10.7585V8.40416H25.5463C22.9876 8.40416 20.9003 10.1767 20.9003 12.3552V14.7096Z" fill="white"/>
<path d="M196.681 1.75902H198.324C198.687 1.75902 198.983 1.8808 199.226 2.11083C199.468 2.34085 199.589 2.63853 199.589 2.99034C199.589 3.16624 199.563 3.32861 199.495 3.47745C199.441 3.62629 199.361 3.73454 199.28 3.81572C199.199 3.89691 199.118 3.96456 199.024 4.03222C198.93 4.09987 198.862 4.12693 198.808 4.154L198.714 4.18106L199.684 5.89949H199.185L198.27 4.24871H197.098V5.89949H196.654V1.75902H196.681ZM198.324 2.16495H197.125V3.81572H198.324C198.579 3.81572 198.768 3.73454 198.93 3.5857C199.078 3.43686 199.159 3.23389 199.159 2.9768C199.159 2.71972 199.078 2.51675 198.93 2.36791C198.781 2.24613 198.579 2.16495 198.324 2.16495ZM198.202 7.64498C196.102 7.64498 194.405 5.92655 194.405 3.82925C194.405 1.73196 196.102 0 198.202 0C200.303 0 202 1.71843 202 3.81572C202 5.91302 200.29 7.64498 198.202 7.64498ZM198.202 0.514175C196.384 0.514175 194.917 2.00258 194.917 3.81572C194.917 5.62887 196.398 7.11727 198.202 7.11727C200.02 7.11727 201.488 5.62887 201.488 3.81572C201.488 2.00258 200.007 0.514175 198.202 0.514175Z" fill="#26AFF0"/>
</g>
<defs>
<clipPath id="clip0_2132_360">
<rect width="202" height="42" fill="white"/>
</clipPath>
</defs>
</svg>
