<svg width="80" height="80" viewBox="0 0 80 80" fill="none" xmlns="http://www.w3.org/2000/svg">
<path d="M61.7695 23.9918L51.893 33.8683C51.1385 34.6228 50.1783 35 49.0123 35C47.8464 35 46.8861 34.6228 46.1317 33.8683C45.3772 33.1139 45 32.1536 45 30.9877C45 29.8217 45.3772 28.8615 46.1317 28.107L56.0082 18.2305H49.4239C48.2579 18.2305 47.2812 17.8354 46.4938 17.0453C45.7064 16.2551 45.3114 15.2785 45.3086 14.1152C45.3059 12.952 45.701 11.9753 46.4938 11.1852C47.2867 10.3951 48.2634 10 49.4239 10H65.8848C67.0507 10 68.0288 10.3951 68.8189 11.1852C69.609 11.9753 70.0027 12.952 70 14.1152V30.5761C70 31.7421 69.6049 32.7202 68.8148 33.5103C68.0247 34.3004 67.048 34.6941 65.8848 34.6914C64.7215 34.6886 63.7448 34.2936 62.9547 33.5062C62.1646 32.7188 61.7695 31.7421 61.7695 30.5761V23.9918Z" fill="white"/>
<path d="M30.5761 61.7695H23.9918L33.8683 51.893C34.6228 51.1385 35 50.1783 35 49.0123C35 47.8464 34.6228 46.8861 33.8683 46.1317C33.1139 45.3772 32.1536 45 30.9877 45C29.8217 45 28.8615 45.3772 28.107 46.1317L18.2305 56.0082V49.4239C18.2359 48.2634 17.8422 47.2867 17.0494 46.4938C16.2565 45.701 15.2785 45.3059 14.1152 45.3086C12.952 45.3114 11.9753 45.7064 11.1852 46.4938C10.3951 47.2812 10 48.2579 10 49.4239V65.8847C10.0027 67.048 10.3978 68.0246 11.1852 68.8148C11.9726 69.6049 12.9492 69.9999 14.1152 69.9999H30.5761C31.7421 70.0054 32.7188 69.6117 33.5062 68.8189C34.2936 68.026 34.6886 67.048 34.6914 65.8847C34.6941 64.7215 34.3004 63.7448 33.5103 62.9547C32.7202 62.1646 31.7421 61.7695 30.5761 61.7695Z" fill="white"/>
</svg>
